<svg width="26" height="26" viewBox="0 0 26 26" fill="none" xmlns="http://www.w3.org/2000/svg">
<path d="M5.41669 5.41666H19.5C20.362 5.41666 21.1886 5.75907 21.7981 6.36856C22.4076 6.97805 22.75 7.8047 22.75 8.66666V18.4167C22.75 19.2786 22.4076 20.1053 21.7981 20.7148C21.1886 21.3242 20.362 21.6667 19.5 21.6667H5.41669C4.55473 21.6667 3.72808 21.3242 3.11859 20.7148C2.5091 20.1053 2.16669 19.2786 2.16669 18.4167V8.66666C2.16669 7.8047 2.5091 6.97805 3.11859 6.36856C3.72808 5.75907 4.55473 5.41666 5.41669 5.41666ZM5.41669 6.49999C4.87502 6.49999 4.39835 6.68416 4.03002 7.00916L12.4584 12.4583L20.8867 7.00916C20.5184 6.68416 20.0417 6.49999 19.5 6.49999H5.41669ZM12.4584 13.7692L3.39085 7.88666C3.30419 8.12499 3.25002 8.39582 3.25002 8.66666V18.4167C3.25002 18.9913 3.47829 19.5424 3.88462 19.9487C4.29095 20.3551 4.84205 20.5833 5.41669 20.5833H19.5C20.0747 20.5833 20.6258 20.3551 21.0321 19.9487C21.4384 19.5424 21.6667 18.9913 21.6667 18.4167V8.66666C21.6667 8.39582 21.6125 8.12499 21.5259 7.88666L12.4584 13.7692Z" fill="black"/>
</svg>
